REM DIRINDEX 1\2,1\3
REM DIRNAME cjc102,folder01,folder02
TITLE ""
FILE "CD1Track18.mp3" MP3
  TRACK 01 AUDIO
    TITLE "0:"
    INDEX 01 00:00:00
  TRACK 02 AUDIO
    TITLE "2:cjc102_0677"
    INDEX 01 00:00:25
  TRACK 03 AUDIO
    TITLE "0:"
    INDEX 01 00:01:07
  TRACK 04 AUDIO
    TITLE "3:cjc102_0678"
    INDEX 01 00:01:21
  TRACK 05 AUDIO
    TITLE "0:"
    INDEX 01 00:02:51
  TRACK 06 AUDIO
    TITLE "3:cjc102_0679"
    INDEX 01 00:03:08
  TRACK 07 AUDIO
    TITLE "0:"
    INDEX 01 00:08:09
  TRACK 08 AUDIO
    TITLE "2:cjc102_0680"
    INDEX 01 00:08:15
  TRACK 09 AUDIO
    TITLE "0:"
    INDEX 01 00:09:20
  TRACK 10 AUDIO
    TITLE "3:cjc102_0681"
    INDEX 01 00:10:25
  TRACK 11 AUDIO
    TITLE "0:"
    INDEX 01 00:11:17
  TRACK 12 AUDIO
    TITLE "2:cjc102_0682"
    INDEX 01 00:11:68
  TRACK 13 AUDIO
    TITLE "0:"
    INDEX 01 00:12:58
  TRACK 14 AUDIO
    TITLE "3:cjc102_0683"
    INDEX 01 00:13:39
  TRACK 15 AUDIO
    TITLE "0:"
    INDEX 01 00:14:21
  TRACK 16 AUDIO
    TITLE "2:cjc102_0684"
    INDEX 01 00:14:41
  TRACK 17 AUDIO
    TITLE "0:"
    INDEX 01 00:15:34
  TRACK 18 AUDIO
    TITLE "3:cjc102_0685"
    INDEX 01 00:16:18
  TRACK 19 AUDIO
    TITLE "0:"
    INDEX 01 00:17:12
  TRACK 20 AUDIO
    TITLE "2:cjc102_0686"
    INDEX 01 00:17:37
  TRACK 21 AUDIO
    TITLE "0:"
    INDEX 01 00:18:58
  TRACK 22 AUDIO
    TITLE "3:cjc102_0687"
    INDEX 01 00:19:32
  TRACK 23 AUDIO
    TITLE "0:"
    INDEX 01 00:20:24
  TRACK 24 AUDIO
    TITLE "2:cjc102_0688"
    INDEX 01 00:20:47
  TRACK 25 AUDIO
    TITLE "0:"
    INDEX 01 00:21:37
  TRACK 26 AUDIO
    TITLE "3:cjc102_0689"
    INDEX 01 00:22:30
  TRACK 27 AUDIO
    TITLE "0:"
    INDEX 01 00:23:10
  TRACK 28 AUDIO
    TITLE "2:cjc102_0690"
    INDEX 01 00:23:50
  TRACK 29 AUDIO
    TITLE "0:"
    INDEX 01 00:24:55
  TRACK 30 AUDIO
    TITLE "3:cjc102_0691"
    INDEX 01 00:25:56
  TRACK 31 AUDIO
    TITLE "0:"
    INDEX 01 00:26:48
  TRACK 32 AUDIO
    TITLE "2:cjc102_0692"
    INDEX 01 00:27:08
  TRACK 33 AUDIO
    TITLE "0:"
    INDEX 01 00:28:12
  TRACK 34 AUDIO
    TITLE "3:cjc102_0693"
    INDEX 01 00:28:72
  TRACK 35 AUDIO
    TITLE "0:"
    INDEX 01 00:29:64
  TRACK 36 AUDIO
    TITLE "2:cjc102_0694"
    INDEX 01 00:30:24
  TRACK 37 AUDIO
    TITLE "0:"
    INDEX 01 00:31:33
  TRACK 38 AUDIO
    TITLE "3:cjc102_0695"
    INDEX 01 00:32:13
  TRACK 39 AUDIO
    TITLE "0:"
    INDEX 01 00:33:09
  TRACK 40 AUDIO
    TITLE "2:cjc102_0696"
    INDEX 01 00:33:46
  TRACK 41 AUDIO
    TITLE "0:"
    INDEX 01 00:34:47
  TRACK 42 AUDIO
    TITLE "3:cjc102_0697"
    INDEX 01 00:35:51
  TRACK 43 AUDIO
    TITLE "0:"
    INDEX 01 00:36:44
  TRACK 44 AUDIO
    TITLE "2:cjc102_0698"
    INDEX 01 00:37:01
  TRACK 45 AUDIO
    TITLE "0:"
    INDEX 01 00:38:02
  TRACK 46 AUDIO
    TITLE "3:cjc102_0699"
    INDEX 01 00:38:73
  TRACK 47 AUDIO
    TITLE "0:"
    INDEX 01 00:39:68
  TRACK 48 AUDIO
    TITLE "2:cjc102_0700"
    INDEX 01 00:40:19
  TRACK 49 AUDIO
    TITLE "0:"
    INDEX 01 00:41:10
  TRACK 50 AUDIO
    TITLE "3:cjc102_0701"
    INDEX 01 00:41:73
  TRACK 51 AUDIO
    TITLE "0:"
    INDEX 01 00:43:11
  TRACK 52 AUDIO
    TITLE "2:cjc102_0702"
    INDEX 01 00:43:27
  TRACK 53 AUDIO
    TITLE "0:"
    INDEX 01 00:44:03
  TRACK 54 AUDIO
    TITLE "3:cjc102_0703"
    INDEX 01 00:45:04
  TRACK 55 AUDIO
    TITLE "0:"
    INDEX 01 00:46:11
  TRACK 56 AUDIO
    TITLE "2:cjc102_0704"
    INDEX 01 00:46:37
  TRACK 57 AUDIO
    TITLE "0:"
    INDEX 01 00:47:42
  TRACK 58 AUDIO
    TITLE "3:cjc102_0705"
    INDEX 01 00:48:22
  TRACK 59 AUDIO
    TITLE "0:"
    INDEX 01 00:49:39
  TRACK 60 AUDIO
    TITLE "2:cjc102_0706"
    INDEX 01 00:49:61
  TRACK 61 AUDIO
    TITLE "0:"
    INDEX 01 00:50:64
  TRACK 62 AUDIO
    TITLE "3:cjc102_0707"
    INDEX 01 00:51:48
  TRACK 63 AUDIO
    TITLE "0:"
    INDEX 01 00:52:65
  TRACK 64 AUDIO
    TITLE "2:cjc102_0708"
    INDEX 01 00:53:09
  TRACK 65 AUDIO
    TITLE "0:"
    INDEX 01 00:54:09
  TRACK 66 AUDIO
    TITLE "3:cjc102_0709"
    INDEX 01 00:54:72
  TRACK 67 AUDIO
    TITLE "0:"
    INDEX 01 00:56:02
  TRACK 68 AUDIO
    TITLE "2:cjc102_0710"
    INDEX 01 00:56:29
  TRACK 69 AUDIO
    TITLE "0:"
    INDEX 01 00:57:39
  TRACK 70 AUDIO
    TITLE "3:cjc102_0711"
    INDEX 01 00:58:24
  TRACK 71 AUDIO
    TITLE "0:"
    INDEX 01 00:59:32
  TRACK 72 AUDIO
    TITLE "2:cjc102_0712"
    INDEX 01 00:59:67
  TRACK 73 AUDIO
    TITLE "0:"
    INDEX 01 01:00:43
  TRACK 74 AUDIO
    TITLE "3:cjc102_0713"
    INDEX 01 01:01:52
  TRACK 75 AUDIO
    TITLE "0:"
    INDEX 01 01:02:65
  TRACK 76 AUDIO
    TITLE "2:cjc102_0714"
    INDEX 01 01:03:27
  TRACK 77 AUDIO
    TITLE "0:"
    INDEX 01 01:04:25
  TRACK 78 AUDIO
    TITLE "3:cjc102_0715"
    INDEX 01 01:05:22
  TRACK 79 AUDIO
    TITLE "0:"
    INDEX 01 01:06:45
  TRACK 80 AUDIO
    TITLE "2:cjc102_0716"
    INDEX 01 01:07:12
  TRACK 81 AUDIO
    TITLE "0:"
    INDEX 01 01:08:36
  TRACK 82 AUDIO
    TITLE "3:cjc102_0717"
    INDEX 01 01:09:22
  TRACK 83 AUDIO
    TITLE "0:"
    INDEX 01 01:10:39
  TRACK 84 AUDIO
    TITLE "2:cjc102_0718"
    INDEX 01 01:10:73
  TRACK 85 AUDIO
    TITLE "0:"
    INDEX 01 01:12:03
  TRACK 86 AUDIO
    TITLE "2:cjc102_0719"
    INDEX 01 01:12:44
  TRACK 87 AUDIO
    TITLE "0:"
    INDEX 01 01:13:47
  TRACK 88 AUDIO
    TITLE "3:cjc102_0720"
    INDEX 01 01:14:25
  TRACK 89 AUDIO
    TITLE "0:"
    INDEX 01 01:15:33
  TRACK 90 AUDIO
    TITLE "2:cjc102_0721"
    INDEX 01 01:15:48
  TRACK 91 AUDIO
    TITLE "0:"
    INDEX 01 01:16:56
  TRACK 92 AUDIO
    TITLE "2:cjc102_0722"
    INDEX 01 01:17:02
  TRACK 93 AUDIO
    TITLE "0:"
    INDEX 01 01:18:15
  TRACK 94 AUDIO
    TITLE "3:cjc102_0723"
    INDEX 01 01:18:70
  TRACK 95 AUDIO
    TITLE "0:"
    INDEX 01 01:20:18
  TRACK 96 AUDIO
    TITLE "2:cjc102_0724"
    INDEX 01 01:20:48
  TRACK 97 AUDIO
    TITLE "0:"
    INDEX 01 01:21:39
  TRACK 98 AUDIO
    TITLE "2:cjc102_0725"
    INDEX 01 01:21:69
  TRACK 99 AUDIO
    TITLE "0:"
    INDEX 01 01:22:68
  TRACK 100 AUDIO
    TITLE "3:cjc102_0726"
    INDEX 01 01:23:50
  TRACK 101 AUDIO
    TITLE "0:"
    INDEX 01 01:24:63
  TRACK 102 AUDIO
    TITLE "2:cjc102_0727"
    INDEX 01 01:25:15
  TRACK 103 AUDIO
    TITLE "0:"
    INDEX 01 01:26:17
  TRACK 104 AUDIO
    TITLE "2:cjc102_0728"
    INDEX 01 01:26:38
  TRACK 105 AUDIO
    TITLE "0:"
    INDEX 01 01:27:44
  TRACK 106 AUDIO
    TITLE "3:cjc102_0729"
    INDEX 01 01:28:59
  TRACK 107 AUDIO
    TITLE "0:"
    INDEX 01 01:30:09
  TRACK 108 AUDIO
    TITLE "2:cjc102_0730"
    INDEX 01 01:30:40
  TRACK 109 AUDIO
    TITLE "0:"
    INDEX 01 01:31:45
  TRACK 110 AUDIO
    TITLE "2:cjc102_0731"
    INDEX 01 01:31:67
  TRACK 111 AUDIO
    TITLE "0:"
    INDEX 01 01:32:68
  TRACK 112 AUDIO
    TITLE "3:cjc102_0732"
    INDEX 01 01:34:08
  TRACK 113 AUDIO
    TITLE "0:"
    INDEX 01 01:35:33
  TRACK 114 AUDIO
    TITLE "2:cjc102_0733"
    INDEX 01 01:36:13
  TRACK 115 AUDIO
    TITLE "0:"
    INDEX 01 01:38:20
  TRACK 116 AUDIO
    TITLE "3:cjc102_0734"
    INDEX 01 01:39:25
  TRACK 117 AUDIO
    TITLE "0:"
    INDEX 01 01:40:40
  TRACK 118 AUDIO
    TITLE "2:cjc102_0735"
    INDEX 01 01:41:12
  TRACK 119 AUDIO
    TITLE "0:"
    INDEX 01 01:44:19
  TRACK 120 AUDIO
    TITLE "3:cjc102_0736"
    INDEX 01 01:45:24
  TRACK 121 AUDIO
    TITLE "0:"
    INDEX 01 01:46:43
  TRACK 122 AUDIO
    TITLE "2:cjc102_0737"
    INDEX 01 01:47:05
  TRACK 123 AUDIO
    TITLE "0:"
    INDEX 01 01:51:62
